<mxfile host="65bd71144e">
    <diagram id="tKaR_ZoalzY3fyFdgeQd" name="Page-1">
        <mxGraphModel dx="1469" dy="398" grid="1" gridSize="10" guides="1" tooltips="1" connect="1" arrows="1" fold="1" page="1" pageScale="1" pageWidth="827" pageHeight="1169" math="0" shadow="0">
            <root>
                <mxCell id="0"/>
                <mxCell id="1" parent="0"/>
                <mxCell id="15" value="Start Screen" style="swimlane;fontStyle=4;align=center;verticalAlign=top;childLayout=stackLayout;horizontal=1;startSize=40;horizontalStack=0;resizeParent=1;resizeParentMax=0;resizeLast=0;collapsible=0;marginBottom=0;html=1;rounded=1;absoluteArcSize=1;arcSize=58;" parent="1" vertex="1">
                    <mxGeometry x="351" y="20" width="139" height="160" as="geometry"/>
                </mxCell>
                <mxCell id="21" value="Show start screen&#10;Blur Backgeound&#10;&#10;Button Start&#10;Button Instruction" style="fillColor=none;strokeColor=none;align=left;verticalAlign=middle;spacingLeft=5;" parent="15" vertex="1">
                    <mxGeometry y="40" width="139" height="120" as="geometry"/>
                </mxCell>
                <mxCell id="31" value="Start game&amp;nbsp;" style="swimlane;fontStyle=4;align=center;verticalAlign=top;childLayout=stackLayout;horizontal=1;startSize=40;horizontalStack=0;resizeParent=1;resizeParentMax=0;resizeLast=0;collapsible=0;marginBottom=0;html=1;rounded=1;absoluteArcSize=1;arcSize=58;fillColor=#60a917;fontColor=#ffffff;strokeColor=#2D7600;" parent="1" vertex="1">
                    <mxGeometry x="351" y="260" width="139" height="160" as="geometry"/>
                </mxCell>
                <mxCell id="32" value="Play animations&#10;stop blur&#10;Show stats&#10;&#10;&#10;Button Options&#10;Button Sound" style="fillColor=none;strokeColor=none;align=left;verticalAlign=middle;spacingLeft=5;" parent="31" vertex="1">
                    <mxGeometry y="40" width="139" height="120" as="geometry"/>
                </mxCell>
                <mxCell id="37" style="edgeStyle=none;html=1;entryX=1.01;entryY=0.345;entryDx=0;entryDy=0;entryPerimeter=0;" parent="1" source="33" target="32" edge="1">
                    <mxGeometry relative="1" as="geometry"/>
                </mxCell>
                <mxCell id="33" value="Instructions Screen" style="swimlane;fontStyle=4;align=center;verticalAlign=top;childLayout=stackLayout;horizontal=1;startSize=40;horizontalStack=0;resizeParent=1;resizeParentMax=0;resizeLast=0;collapsible=0;marginBottom=0;html=1;rounded=1;absoluteArcSize=1;arcSize=58;" parent="1" vertex="1">
                    <mxGeometry x="550" y="130" width="139" height="160" as="geometry"/>
                </mxCell>
                <mxCell id="34" value="Show instructiion screen&#10;Blur Backgeound&#10;&#10;Button return&#10;Button Sound" style="fillColor=none;strokeColor=none;align=left;verticalAlign=middle;spacingLeft=5;" parent="33" vertex="1">
                    <mxGeometry y="40" width="139" height="120" as="geometry"/>
                </mxCell>
                <mxCell id="35" style="edgeStyle=none;html=1;entryX=0.5;entryY=0;entryDx=0;entryDy=0;" parent="1" source="21" target="31" edge="1">
                    <mxGeometry relative="1" as="geometry"/>
                </mxCell>
                <mxCell id="36" style="edgeStyle=none;html=1;" parent="1" source="21" target="33" edge="1">
                    <mxGeometry relative="1" as="geometry"/>
                </mxCell>
                <mxCell id="40" value="Shoot Duck" style="swimlane;fontStyle=4;align=center;verticalAlign=top;childLayout=stackLayout;horizontal=1;startSize=40;horizontalStack=0;resizeParent=1;resizeParentMax=0;resizeLast=0;collapsible=0;marginBottom=0;html=1;rounded=1;absoluteArcSize=1;arcSize=58;fillColor=#60a917;fontColor=#ffffff;strokeColor=#2D7600;" parent="1" vertex="1">
                    <mxGeometry x="20" y="440" width="139" height="160" as="geometry"/>
                </mxCell>
                <mxCell id="41" value="Minus 1 ammo&#10;Add 1 point&#10;check Ammo&#10;&#10;Button Options&#10;Button Sound" style="fillColor=none;strokeColor=none;align=left;verticalAlign=middle;spacingLeft=5;" parent="40" vertex="1">
                    <mxGeometry y="40" width="139" height="120" as="geometry"/>
                </mxCell>
                <mxCell id="42" value="Shoot Bunny" style="swimlane;fontStyle=4;align=center;verticalAlign=top;childLayout=stackLayout;horizontal=1;startSize=40;horizontalStack=0;resizeParent=1;resizeParentMax=0;resizeLast=0;collapsible=0;marginBottom=0;html=1;rounded=1;absoluteArcSize=1;arcSize=58;fillColor=#60a917;fontColor=#ffffff;strokeColor=#2D7600;" parent="1" vertex="1">
                    <mxGeometry x="180" y="460" width="139" height="160" as="geometry"/>
                </mxCell>
                <mxCell id="43" value="Minus 1 ammo&#10;Add 1 point&#10;check Ammo&#10;&#10;Button Options&#10;Button Sound" style="fillColor=none;strokeColor=none;align=left;verticalAlign=middle;spacingLeft=5;" parent="42" vertex="1">
                    <mxGeometry y="40" width="139" height="120" as="geometry"/>
                </mxCell>
                <mxCell id="44" value="Shoot Dog" style="swimlane;fontStyle=4;align=center;verticalAlign=top;childLayout=stackLayout;horizontal=1;startSize=40;horizontalStack=0;resizeParent=1;resizeParentMax=0;resizeLast=0;collapsible=0;marginBottom=0;html=1;rounded=1;absoluteArcSize=1;arcSize=58;fillColor=#a20025;fontColor=#ffffff;strokeColor=#6F0000;" parent="1" vertex="1">
                    <mxGeometry x="510" y="460" width="139" height="160" as="geometry"/>
                </mxCell>
                <mxCell id="45" value="Minus 1 ammo&#10;Game Over&#10;&#10;Button Options&#10;Button Sound" style="fillColor=none;strokeColor=none;align=left;verticalAlign=middle;spacingLeft=5;" parent="44" vertex="1">
                    <mxGeometry y="40" width="139" height="120" as="geometry"/>
                </mxCell>
                <mxCell id="46" value="Shoot Disc" style="swimlane;fontStyle=4;align=center;verticalAlign=top;childLayout=stackLayout;horizontal=1;startSize=40;horizontalStack=0;resizeParent=1;resizeParentMax=0;resizeLast=0;collapsible=0;marginBottom=0;html=1;rounded=1;absoluteArcSize=1;arcSize=58;fillColor=#a20025;fontColor=#ffffff;strokeColor=#6F0000;" parent="1" vertex="1">
                    <mxGeometry x="670" y="440" width="139" height="160" as="geometry"/>
                </mxCell>
                <mxCell id="47" value="Minus 1 ammo&#10;check lives &amp; Ammo&#10;&#10;&#10;Button Options&#10;Button Sound" style="fillColor=none;strokeColor=none;align=left;verticalAlign=middle;spacingLeft=5;" parent="46" vertex="1">
                    <mxGeometry y="40" width="139" height="120" as="geometry"/>
                </mxCell>
                <mxCell id="49" value="Shoot background" style="swimlane;fontStyle=4;align=center;verticalAlign=top;childLayout=stackLayout;horizontal=1;startSize=40;horizontalStack=0;resizeParent=1;resizeParentMax=0;resizeLast=0;collapsible=0;marginBottom=0;html=1;rounded=1;absoluteArcSize=1;arcSize=58;fillColor=#e3c800;fontColor=#000000;strokeColor=#B09500;" parent="1" vertex="1">
                    <mxGeometry x="344" y="490" width="139" height="160" as="geometry"/>
                </mxCell>
                <mxCell id="50" value="Minus 1 ammo&#10;check lives &amp; Ammo&#10;&#10;&#10;Button Options&#10;Button Sound" style="fillColor=none;strokeColor=none;align=left;verticalAlign=middle;spacingLeft=5;" parent="49" vertex="1">
                    <mxGeometry y="40" width="139" height="120" as="geometry"/>
                </mxCell>
                <mxCell id="53" value="TIME START" style="swimlane;fontStyle=4;align=center;verticalAlign=top;childLayout=stackLayout;horizontal=1;startSize=40;horizontalStack=0;resizeParent=1;resizeParentMax=0;resizeLast=0;collapsible=0;marginBottom=0;html=1;rounded=1;absoluteArcSize=1;arcSize=58;fillColor=#76608a;fontColor=#ffffff;strokeColor=#432D57;" parent="1" vertex="1">
                    <mxGeometry x="-200" y="260" width="139" height="160" as="geometry"/>
                </mxCell>
                <mxCell id="54" value="Start timer animation&#10;Js time code" style="fillColor=none;strokeColor=none;align=left;verticalAlign=middle;spacingLeft=5;" parent="53" vertex="1">
                    <mxGeometry y="40" width="139" height="120" as="geometry"/>
                </mxCell>
                <mxCell id="55" style="edgeStyle=none;html=1;entryX=1;entryY=0.5;entryDx=0;entryDy=0;" parent="1" source="32" target="54" edge="1">
                    <mxGeometry relative="1" as="geometry"/>
                </mxCell>
                <mxCell id="70" style="edgeStyle=none;html=1;entryX=-0.027;entryY=0.38;entryDx=0;entryDy=0;entryPerimeter=0;" parent="1" source="58" target="62" edge="1">
                    <mxGeometry relative="1" as="geometry"/>
                </mxCell>
                <mxCell id="58" value="TIME END" style="swimlane;fontStyle=4;align=center;verticalAlign=top;childLayout=stackLayout;horizontal=1;startSize=40;horizontalStack=0;resizeParent=1;resizeParentMax=0;resizeLast=0;collapsible=0;marginBottom=0;html=1;rounded=1;absoluteArcSize=1;arcSize=58;fillColor=#76608a;fontColor=#ffffff;strokeColor=#432D57;" parent="1" vertex="1">
                    <mxGeometry x="-200" y="730" width="139" height="160" as="geometry"/>
                </mxCell>
                <mxCell id="59" value="Check PointsÂ " style="fillColor=none;strokeColor=none;align=left;verticalAlign=middle;spacingLeft=5;" parent="58" vertex="1">
                    <mxGeometry y="40" width="139" height="120" as="geometry"/>
                </mxCell>
                <mxCell id="60" style="edgeStyle=none;html=1;entryX=0.5;entryY=0;entryDx=0;entryDy=0;" parent="1" source="54" target="58" edge="1">
                    <mxGeometry relative="1" as="geometry"/>
                </mxCell>
                <mxCell id="61" value="Game End" style="swimlane;fontStyle=4;align=center;verticalAlign=top;childLayout=stackLayout;horizontal=1;startSize=40;horizontalStack=0;resizeParent=1;resizeParentMax=0;resizeLast=0;collapsible=0;marginBottom=0;html=1;rounded=1;absoluteArcSize=1;arcSize=58;fillColor=#76608a;fontColor=#ffffff;strokeColor=#432D57;" parent="1" vertex="1">
                    <mxGeometry x="344" y="770" width="139" height="160" as="geometry"/>
                </mxCell>
                <mxCell id="62" value="Check Points&#10;Blur backroiund&#10;Hide option button&#10;Hide animals&#10;Hide stats&#10;&#10;THENÂ &#10;Show the end SCREEN" style="fillColor=none;strokeColor=none;align=left;verticalAlign=middle;spacingLeft=5;" parent="61" vertex="1">
                    <mxGeometry y="40" width="139" height="120" as="geometry"/>
                </mxCell>
                <mxCell id="69" style="edgeStyle=none;html=1;entryX=0.5;entryY=0;entryDx=0;entryDy=0;" parent="1" source="63" target="61" edge="1">
                    <mxGeometry relative="1" as="geometry"/>
                </mxCell>
                <mxCell id="63" value="IF the HEARTS = 0 or AMMO = 0" style="text;html=1;align=center;verticalAlign=middle;resizable=0;points=[];autosize=1;strokeColor=none;fillColor=none;" parent="1" vertex="1">
                    <mxGeometry x="319" y="700" width="190" height="20" as="geometry"/>
                </mxCell>
                <mxCell id="64" style="edgeStyle=none;html=1;entryX=-0.006;entryY=0.195;entryDx=0;entryDy=0;entryPerimeter=0;" parent="1" source="41" target="63" edge="1">
                    <mxGeometry relative="1" as="geometry"/>
                </mxCell>
                <mxCell id="65" style="edgeStyle=none;html=1;entryX=0.225;entryY=0.026;entryDx=0;entryDy=0;entryPerimeter=0;" parent="1" source="43" target="63" edge="1">
                    <mxGeometry relative="1" as="geometry"/>
                </mxCell>
                <mxCell id="66" style="edgeStyle=none;html=1;" parent="1" source="50" edge="1">
                    <mxGeometry relative="1" as="geometry">
                        <mxPoint x="414" y="690" as="targetPoint"/>
                    </mxGeometry>
                </mxCell>
                <mxCell id="67" style="edgeStyle=none;html=1;entryX=0.854;entryY=0.026;entryDx=0;entryDy=0;entryPerimeter=0;" parent="1" source="45" target="63" edge="1">
                    <mxGeometry relative="1" as="geometry"/>
                </mxCell>
                <mxCell id="68" style="edgeStyle=none;html=1;entryX=1.023;entryY=0.183;entryDx=0;entryDy=0;entryPerimeter=0;" parent="1" source="47" target="63" edge="1">
                    <mxGeometry relative="1" as="geometry"/>
                </mxCell>
                <mxCell id="72" value="You shoot the Dog" style="swimlane;fontStyle=4;align=center;verticalAlign=top;childLayout=stackLayout;horizontal=1;startSize=40;horizontalStack=0;resizeParent=1;resizeParentMax=0;resizeLast=0;collapsible=0;marginBottom=0;html=1;rounded=1;absoluteArcSize=1;arcSize=58;fillColor=#f5f5f5;fontColor=#333333;strokeColor=#666666;" parent="1" vertex="1">
                    <mxGeometry x="423" y="1000" width="139" height="120" as="geometry"/>
                </mxCell>
                <mxCell id="73" value="If you shooted the dog&#10;&#10;Button Play&#10;Button Instruction" style="fillColor=none;strokeColor=none;align=left;verticalAlign=middle;spacingLeft=5;" parent="72" vertex="1">
                    <mxGeometry y="40" width="139" height="80" as="geometry"/>
                </mxCell>
                <mxCell id="74" value="You won!" style="swimlane;fontStyle=4;align=center;verticalAlign=top;childLayout=stackLayout;horizontal=1;startSize=40;horizontalStack=0;resizeParent=1;resizeParentMax=0;resizeLast=0;collapsible=0;marginBottom=0;html=1;rounded=1;absoluteArcSize=1;arcSize=58;fillColor=#f5f5f5;fontColor=#333333;strokeColor=#666666;" parent="1" vertex="1">
                    <mxGeometry x="273" y="1000" width="139" height="120" as="geometry"/>
                </mxCell>
                <mxCell id="75" value="When points &gt;3 &amp; &lt;5&#10;&#10;Button Play&#10;Button Instruction" style="fillColor=none;strokeColor=none;align=left;verticalAlign=middle;spacingLeft=5;" parent="74" vertex="1">
                    <mxGeometry y="40" width="139" height="80" as="geometry"/>
                </mxCell>
                <mxCell id="76" value="Join&amp;nbsp; team" style="swimlane;fontStyle=4;align=center;verticalAlign=top;childLayout=stackLayout;horizontal=1;startSize=40;horizontalStack=0;resizeParent=1;resizeParentMax=0;resizeLast=0;collapsible=0;marginBottom=0;html=1;rounded=1;absoluteArcSize=1;arcSize=139;fillColor=#f5f5f5;fontColor=#333333;strokeColor=#666666;" parent="1" vertex="1">
                    <mxGeometry x="123" y="970" width="139" height="130" as="geometry"/>
                </mxCell>
                <mxCell id="77" value="When points = 5&#10;Button Play&#10;Button Instruction&#10;Button Join" style="fillColor=none;strokeColor=none;align=left;verticalAlign=middle;spacingLeft=5;" parent="76" vertex="1">
                    <mxGeometry y="40" width="139" height="90" as="geometry"/>
                </mxCell>
                <mxCell id="78" value="You lose" style="swimlane;fontStyle=4;align=center;verticalAlign=top;childLayout=stackLayout;horizontal=1;startSize=40;horizontalStack=0;resizeParent=1;resizeParentMax=0;resizeLast=0;collapsible=0;marginBottom=0;html=1;rounded=1;absoluteArcSize=1;arcSize=139;fillColor=#f5f5f5;fontColor=#333333;strokeColor=#666666;" parent="1" vertex="1">
                    <mxGeometry x="579" y="970" width="139" height="130" as="geometry"/>
                </mxCell>
                <mxCell id="79" value="When points &lt; 3&#10;&#10;Button Play&#10;Button Instruction" style="fillColor=none;strokeColor=none;align=left;verticalAlign=middle;spacingLeft=5;" parent="78" vertex="1">
                    <mxGeometry y="40" width="139" height="90" as="geometry"/>
                </mxCell>
            </root>
        </mxGraphModel>
    </diagram>
</mxfile>